<?xml version="1.0" encoding="UTF-8" standalone="no"?>
<!-- Uploaded to: SVG Repo, www.svgrepo.com, Generator: SVG Repo Mixer Tools -->

<svg
   fill="#000000"
   width="800px"
   height="800px"
   viewBox="0 0 52 52"
   data-name="Layer 1"
   id="Layer_1"
   version="1.1"
   sodipodi:docname="about.svg"
   inkscape:export-filename="../about.png"
   inkscape:export-xdpi="6"
   inkscape:export-ydpi="6"
   inkscape:version="1.2.2 (b0a8486541, 2022-12-01)"
   xmlns:inkscape="http://www.inkscape.org/namespaces/inkscape"
   xmlns:sodipodi="http://sodipodi.sourceforge.net/DTD/sodipodi-0.dtd"
   xmlns="http://www.w3.org/2000/svg"
   xmlns:svg="http://www.w3.org/2000/svg">
  <defs
     id="defs712" />
  <sodipodi:namedview
     id="namedview710"
     pagecolor="#ffffff"
     bordercolor="#000000"
     borderopacity="0.25"
     inkscape:showpageshadow="2"
     inkscape:pageopacity="0.0"
     inkscape:pagecheckerboard="0"
     inkscape:deskcolor="#d1d1d1"
     showgrid="false"
     inkscape:zoom="1.0825"
     inkscape:cx="400.46189"
     inkscape:cy="400"
     inkscape:window-width="1920"
     inkscape:window-height="1014"
     inkscape:window-x="0"
     inkscape:window-y="32"
     inkscape:window-maximized="1"
     inkscape:current-layer="Layer_1" />
  <path
     d="M26,52A26,26,0,0,1,22.88.19,25.78,25.78,0,0,1,34.73,1.5a2,2,0,1,1-1.35,3.77,22,22,0,0,0-21,38,22,22,0,0,0,35.41-20,2,2,0,1,1,4-.48A26,26,0,0,1,26,52Z"
     id="path703"
     style="fill:#f2f2f2" />
  <path
     d="M26,43.86a2,2,0,0,1-2-2V22.66a2,2,0,1,1,4,0v19.2A2,2,0,0,1,26,43.86Z"
     id="path705"
     style="fill:#f2f2f2" />
  <circle
     cx="26"
     cy="15.71"
     r="2.57"
     id="circle707"
     style="fill:#f2f2f2" />
</svg>
