<?xml version="1.0" encoding="utf-8"?><!-- Uploaded to: SVG Repo, www.svgrepo.com, Generator: SVG Repo Mixer Tools -->
<svg width="800px" height="800px" viewBox="0 0 24 24" fill="none" xmlns="http://www.w3.org/2000/svg">
<path d="M8.24999 18L5.24999 20.25V15.75H2.25C1.85217 15.75 1.47064 15.5919 1.18934 15.3106C0.908034 15.0293 0.749999 14.6478 0.749999 14.25V2.25C0.749999 1.85217 0.908034 1.47064 1.18934 1.18934C1.47064 0.908034 1.85217 0.749999 2.25 0.749999H18.75C19.1478 0.749999 19.5293 0.908034 19.8106 1.18934C20.0919 1.47064 20.25 1.85217 20.25 2.25V6.71484" stroke="#71717A" stroke-width="1.5" stroke-linecap="round" stroke-linejoin="round"/>
<path d="M5.24999 5.24999H15.75" stroke="#71717A" stroke-width="1.5" stroke-linecap="round" stroke-linejoin="round"/>
<path d="M5.24999 9.74999H8.24999" stroke="#71717A" stroke-width="1.5" stroke-linecap="round" stroke-linejoin="round"/>
<path d="M23.25 18.75H20.25V23.25L15.75 18.75H11.25V9.74999H23.25V18.75Z" stroke="#71717A" stroke-width="1.5" stroke-linecap="round" stroke-linejoin="round"/>
<path d="M19.5 15H15" stroke="#71717A" stroke-width="1.5" stroke-linecap="round" stroke-linejoin="round"/>
</svg>