<?xml version="1.0" encoding="UTF-8" standalone="no"?>
<!-- Uploaded to: SVG Repo, www.svgrepo.com, Generator: SVG Repo Mixer Tools -->

<svg
   fill="#000000"
   width="800px"
   height="800px"
   viewBox="0 -1 16 16"
   id="new-password-16px"
   version="1.1"
   sodipodi:docname="generate.svg"
   inkscape:export-filename="../generate.png"
   inkscape:export-xdpi="6"
   inkscape:export-ydpi="6"
   inkscape:version="1.2.2 (b0a8486541, 2022-12-01)"
   xmlns:inkscape="http://www.inkscape.org/namespaces/inkscape"
   xmlns:sodipodi="http://sodipodi.sourceforge.net/DTD/sodipodi-0.dtd"
   xmlns="http://www.w3.org/2000/svg"
   xmlns:svg="http://www.w3.org/2000/svg">
  <defs
     id="defs6" />
  <sodipodi:namedview
     id="namedview4"
     pagecolor="#ffffff"
     bordercolor="#000000"
     borderopacity="0.25"
     inkscape:showpageshadow="2"
     inkscape:pageopacity="0.0"
     inkscape:pagecheckerboard="0"
     inkscape:deskcolor="#d1d1d1"
     showgrid="false"
     inkscape:zoom="1.0825"
     inkscape:cx="400.46189"
     inkscape:cy="400"
     inkscape:window-width="1920"
     inkscape:window-height="1014"
     inkscape:window-x="0"
     inkscape:window-y="32"
     inkscape:window-maximized="1"
     inkscape:current-layer="new-password-16px" />
  <path
     id="Path_64"
     data-name="Path 64"
     d="M29.5-228h5a.5.5,0,0,0,.5-.5v-4a.5.5,0,0,0-.5-.5H34v-1a2,2,0,0,0-2-2,2,2,0,0,0-2,2v1h-.5a.5.5,0,0,0-.5.5v4A.5.5,0,0,0,29.5-228Zm1.5-6a1,1,0,0,1,1-1,1,1,0,0,1,1,1v1H31Zm-1,2h4v3H30Zm9,0a7.008,7.008,0,0,1-7,7,7.008,7.008,0,0,1-7-7v-1.293l-1.146,1.147A.5.5,0,0,1,23.5-232a.5.5,0,0,1-.354-.146.5.5,0,0,1,0-.708l2-2a.518.518,0,0,1,.163-.109.505.505,0,0,1,.382,0,.518.518,0,0,1,.163.109l2,2a.5.5,0,0,1,0,.708A.5.5,0,0,1,27.5-232a.5.5,0,0,1-.354-.146L26-233.293V-232a6.006,6.006,0,0,0,6,6,6.006,6.006,0,0,0,6-6,6.006,6.006,0,0,0-6-6,.5.5,0,0,1-.5-.5.5.5,0,0,1,.5-.5A7.008,7.008,0,0,1,39-232Z"
     transform="translate(-23 239)"
     style="fill:#f2f2f2" />
</svg>
