<?xml version="1.0" encoding="UTF-8" standalone="no"?>
<!-- Uploaded to: SVG Repo, www.svgrepo.com, Generator: SVG Repo Mixer Tools -->

<svg
   width="24"
   height="24"
   viewBox="0 0 24 24"
   fill="none"
   version="1.1"
   id="svg12"
   sodipodi:docname="manage.svg"
   inkscape:export-filename="../manage.png"
   inkscape:export-xdpi="200"
   inkscape:export-ydpi="200"
   inkscape:version="1.2.2 (b0a8486541, 2022-12-01)"
   xmlns:inkscape="http://www.inkscape.org/namespaces/inkscape"
   xmlns:sodipodi="http://sodipodi.sourceforge.net/DTD/sodipodi-0.dtd"
   xmlns="http://www.w3.org/2000/svg"
   xmlns:svg="http://www.w3.org/2000/svg">
  <defs
     id="defs16" />
  <sodipodi:namedview
     id="namedview14"
     pagecolor="#ffffff"
     bordercolor="#000000"
     borderopacity="0.25"
     inkscape:showpageshadow="2"
     inkscape:pageopacity="0.0"
     inkscape:pagecheckerboard="0"
     inkscape:deskcolor="#d1d1d1"
     showgrid="false"
     inkscape:zoom="36.083333"
     inkscape:cx="5.8614319"
     inkscape:cy="12"
     inkscape:window-width="1920"
     inkscape:window-height="1014"
     inkscape:window-x="0"
     inkscape:window-y="32"
     inkscape:window-maximized="1"
     inkscape:current-layer="svg12" />
  <path
     d="M6 12C6 12.5523 5.55228 13 5 13C4.44772 13 4 12.5523 4 12C4 11.4477 4.44772 11 5 11C5.55228 11 6 11.4477 6 12Z"
     fill="#000000"
     id="path2"
     style="stroke:none;fill:#f2f2f2" />
  <path
     d="M9 13C9.55228 13 10 12.5523 10 12C10 11.4477 9.55228 11 9 11C8.44771 11 8 11.4477 8 12C8 12.5523 8.44771 13 9 13Z"
     fill="#000000"
     id="path4"
     style="stroke:none;fill:#f2f2f2" />
  <path
     d="M14 12C14 12.5523 13.5523 13 13 13C12.4477 13 12 12.5523 12 12C12 11.4477 12.4477 11 13 11C13.5523 11 14 11.4477 14 12Z"
     fill="#000000"
     id="path6"
     style="stroke:none;fill:#f2f2f2" />
  <path
     d="M20 11H16V13H20V11Z"
     fill="#000000"
     id="path8"
     style="stroke:none;fill:#f2f2f2" />
  <path
     fill-rule="evenodd"
     clip-rule="evenodd"
     d="M2 6C0.895431 6 0 6.89543 0 8V16C0 17.1046 0.89543 18 2 18H22C23.1046 18 24 17.1046 24 16V8C24 6.89543 23.1046 6 22 6H2ZM22 8H2L2 16H22V8Z"
     fill="#000000"
     id="path10"
     style="fill:#f2f2f2" />
</svg>
