<?xml version="1.0" ?><!-- Uploaded to: SVG Repo, www.svgrepo.com, Generator: SVG Repo Mixer Tools -->
<svg width="800px" height="800px" viewBox="-10 0 60 60" xmlns="http://www.w3.org/2000/svg"><defs><style>
      .cls-1 {
        fill: #9f4c4c;
        fill-rule: evenodd;
      }
    </style></defs><path class="cls-1" d="M644,356h32a4,4,0,0,1,4,4v26a4,4,0,0,1-4,4H644a4,4,0,0,1-4-4V360A4,4,0,0,1,644,356Zm18,17.445V378a2,2,0,0,1-4,0v-4.555A4,4,0,1,1,662,373.445ZM670,352v-6a10,10,0,0,0-20,0v6h-6v-6a16,16,0,0,1,32,0v6h-6Z" id="lock" transform="translate(-640 -330)"/></svg>