<?xml version="1.0" encoding="iso-8859-1"?>
<!-- Uploaded to: SVG Repo, www.svgrepo.com, Generator: SVG Repo Mixer Tools -->
<svg version="1.1" id="Layer_1" xmlns="http://www.w3.org/2000/svg" xmlns:xlink="http://www.w3.org/1999/xlink" 
	 viewBox="0 0 290.626 290.626" xml:space="preserve">
<g>
	<g>
		<path style="fill:#333333;" d="M192.188,126.564v-8.527l4.603-0.183c-2.128-52.945-45.328-94.416-98.353-94.416
			C44.161,23.439,0,67.595,0,121.876c0,52.697,41.658,95.728,93.75,98.198v33.052c0,7.753,6.309,14.063,14.063,14.063H150
			c7.753,0,14.063-6.309,14.063-14.063v-79.688c0-7.753-6.309-14.063-14.063-14.063h-2.114c3.005-10.223,4.692-21.211,5.058-32.812
			h39.244V126.564z M67.889,172.609c2.545,3.647,6.755,6.047,11.527,6.047c6.778,0,12.445-4.819,13.767-11.208
			c0.188-0.009,0.375-0.019,0.563-0.028v6.019v33.984c-7.519-5.114-19.908-15.605-29.044-33.572
			C65.761,173.42,66.82,172.997,67.889,172.609z M74.728,164.592c0-2.583,2.1-4.688,4.688-4.688c2.588,0,4.688,2.105,4.688,4.688
			c0,2.583-2.1,4.688-4.688,4.688C76.828,169.281,74.728,167.176,74.728,164.592z M80.353,209.087
			c-15.211-3.15-28.959-10.242-40.266-20.086c4.908-4.261,10.289-7.955,15.989-11.048C63.309,192.361,72.525,202.43,80.353,209.087z
			 M93.75,158.045c-0.637,0.028-1.275,0.052-1.913,0.094c-2.348-4.5-7.003-7.608-12.422-7.608c-7.388,0-13.402,5.747-13.955,12.998
			c-1.547,0.553-3.08,1.144-4.603,1.777c-4.195-10.655-7.13-23.466-7.636-38.737H93.75V158.045z M53.259,117.189
			c0.459-14.072,3-27.019,7.584-38.709c10.364,4.289,21.473,6.694,32.906,7.233v31.477h-40.49V117.189z M103.125,36.329
			c7.533,5.1,19.959,15.572,29.109,33.586c-9.178,3.769-19.003,5.897-29.109,6.422C103.125,76.337,103.125,36.329,103.125,36.329z
			 M116.414,34.632c15.277,3.103,29.067,10.144,40.397,19.969c-5.002,4.359-10.378,8.152-16.106,11.255
			C133.439,51.39,124.228,41.289,116.414,34.632z M65.475,52c0-2.583,2.1-4.688,4.688-4.688c2.588,0,4.688,2.105,4.688,4.688
			s-2.1,4.688-4.688,4.688C67.575,56.687,65.475,54.587,65.475,52z M75.713,39.09c-1.706-0.736-3.577-1.148-5.55-1.148
			c-0.577,0-1.12,0.103-1.678,0.169c3.928-1.411,7.941-2.644,12.098-3.492C79.003,35.959,77.377,37.459,75.713,39.09z M56.1,52
			c0,3.239,1.148,6.192,2.995,8.573c-1.008,1.739-1.992,3.497-2.902,5.297c-5.705-3.084-11.058-6.853-16.041-11.184
			c6.445-5.597,13.688-10.275,21.553-13.852C58.322,43.403,56.1,47.429,56.1,52z M66.975,65.668
			c1.027,0.239,2.086,0.398,3.188,0.398c7.753,0,14.063-6.309,14.063-14.062c0-2.358-0.637-4.552-1.669-6.506
			c4.172-4.036,8.095-7.078,11.194-9.173v40.017c-10.102-0.525-19.927-2.653-29.105-6.422
			C65.377,68.472,66.174,67.065,66.975,65.668z M103.125,85.712c11.433-0.539,22.538-2.944,32.902-7.233
			c1.083,2.761,2.072,5.672,2.967,8.728c-3.773,2.527-6.267,6.82-6.267,11.691c0,6.581,4.566,12.08,10.683,13.603
			c0.103,1.547,0.188,3.103,0.239,4.683h-40.524V85.712z M146.785,103.59c-2.588,0-4.688-2.105-4.688-4.688
			c0-2.583,2.1-4.688,4.688-4.688c2.587,0,4.688,2.105,4.688,4.688C151.473,101.484,149.372,103.59,146.785,103.59z
			 M152.738,111.597c4.777-2.25,8.114-7.073,8.114-12.694c0-7.303-5.62-13.256-12.75-13.931c-1.064-3.694-2.25-7.195-3.563-10.5
			c6.806-3.619,13.163-8.137,19.045-13.35c13.805,14.794,22.631,34.308,23.756,56.067h-34.313
			C152.963,115.3,152.864,113.443,152.738,111.597z M33.408,61.22c5.85,5.17,12.173,9.656,18.938,13.252
			c-5.152,12.919-7.983,27.211-8.456,42.717H9.614C10.744,95.603,19.552,76.065,33.408,61.22z M9.614,126.564h34.238
			c0.511,16.912,3.736,31.064,8.386,42.797c-6.769,3.614-13.12,8.02-18.886,13.106C19.528,167.626,10.744,148.117,9.614,126.564z
			 M154.688,173.439v79.688c0,2.583-2.1,4.688-4.688,4.688h-42.188c-2.588,0-4.688-2.105-4.688-4.688v-37.5v-42.188
			c0-2.583,2.1-4.688,4.688-4.688H150C152.588,168.751,154.688,170.855,154.688,173.439z M138.085,159.376h-30.272
			c-1.65,0-3.216,0.337-4.688,0.863v-33.675h40.444C143.18,138.273,141.342,149.265,138.085,159.376z"/>
		<rect x="112.5" y="239.064" style="fill:#333333;" width="32.813" height="9.375"/>
		<path style="fill:#F9BA48;" d="M265.018,164.064h-34.364c-3.117,0-5.653-2.536-5.653-5.653v-29.503
			c0-11.63-9.464-21.094-21.094-21.094s-21.094,9.464-21.094,21.094v24.15c0,10.688-8.292,19.378-18.769,20.217
			c0.005,0.056,0.019,0.108,0.019,0.164v79.688h5.611c3.722,0,7.172,1.852,9.239,4.945c3.806,5.705,10.177,9.117,17.039,9.117
			h69.066c14.123,0,25.608-11.484,25.608-25.608v-51.909C290.625,175.548,279.141,164.064,265.018,164.064z"/>
	</g>
</g>
</svg>